<?xml version="1.0" standalone="no"?>
<!DOCTYPE svg PUBLIC "-//W3C//DTD SVG 20010904//EN"
 "http://www.w3.org/TR/2001/REC-SVG-20010904/DTD/svg10.dtd">
<svg version="1.0" xmlns="http://www.w3.org/2000/svg"
 width="400.000000pt" height="400.000000pt" viewBox="0 0 400.000000 400.000000"
 preserveAspectRatio="xMidYMid meet">

<g transform="translate(0.000000,400.000000) scale(0.100000,-0.100000)"
fill="#000000" stroke="none">
<path d="M0 2000 l0 -2000 2000 0 2000 0 0 2000 0 2000 -2000 0 -2000 0 0
-2000z m2418 617 c235 -235 415 -422 419 -436 8 -31 -14 -71 -48 -90 -21 -12
-32 -12 -56 -2 -16 6 -195 178 -398 381 l-370 370 -377 -377 c-359 -359 -379
-377 -414 -377 -28 0 -42 7 -61 29 -44 50 -31 71 157 260 l170 170 0 146 c0
164 7 183 67 195 27 5 37 1 64 -25 30 -30 31 -35 27 -97 l-4 -65 161 159 c88
88 169 165 180 171 11 6 31 8 45 5 16 -3 180 -160 438 -417z m1065 -515 c274
-274 357 -363 357 -382 0 -19 -83 -108 -357 -382 -383 -383 -386 -385 -433
-338 -46 46 -42 53 302 397 l323 323 -323 323 c-342 343 -345 346 -300 394 46
50 48 49 431 -335z m-2534 322 c12 -15 21 -36 21 -47 0 -14 -106 -128 -322
-344 l-323 -323 317 -318 c193 -192 319 -327 323 -342 9 -38 -27 -80 -68 -80
-28 0 -70 38 -384 353 -306 305 -353 356 -353 382 0 26 48 77 357 387 387 387
388 388 432 332z m281 -559 c0 -32 -2 -35 -30 -35 l-30 0 0 -95 0 -95 -50 0
-50 0 0 95 0 95 -35 0 c-33 0 -35 2 -35 35 l0 35 115 0 115 0 0 -35z m223 15
c38 -30 46 -83 17 -122 -21 -28 -21 -31 -6 -69 9 -22 16 -42 16 -44 0 -3 -22
-5 -48 -5 -46 0 -49 2 -67 38 l-20 37 -3 -38 -3 -38 -47 3 -47 3 -3 128 -3
127 94 0 c80 0 98 -3 120 -20z m291 -97 c25 -64 46 -122 46 -130 0 -9 -15 -13
-49 -13 -44 0 -49 3 -55 25 -5 20 -13 25 -36 25 -23 0 -33 -6 -40 -25 -8 -22
-15 -25 -60 -25 -27 0 -50 3 -50 7 0 3 21 62 48 129 l47 124 52 0 51 0 46
-117z m188 72 c12 -25 25 -45 28 -45 3 0 16 20 28 45 21 44 22 45 72 45 l51 0
-3 -127 -3 -128 -47 -3 -48 -3 0 43 c-1 38 -2 41 -14 26 -7 -10 -23 -18 -36
-18 -13 0 -29 8 -36 18 -12 15 -13 12 -14 -26 l0 -43 -47 3 -48 3 -3 128 -3
127 51 0 c50 0 51 -1 72 -45z m412 19 c20 -21 26 -36 26 -71 0 -61 -40 -103
-99 -103 -39 0 -41 -2 -41 -30 0 -29 -1 -30 -50 -30 l-50 0 0 130 0 130 94 0
c87 0 95 -2 120 -26z m280 -95 c25 -66 46 -125 46 -130 0 -5 -22 -9 -50 -9
-45 0 -50 3 -56 25 -5 20 -12 25 -39 25 -27 0 -34 -5 -39 -25 -6 -22 -11 -25
-56 -25 -28 0 -50 3 -50 8 0 4 21 62 46 130 l47 122 52 0 52 0 47 -121z m279
101 c38 -30 46 -83 17 -122 -21 -28 -21 -31 -6 -69 9 -22 16 -42 16 -44 0 -3
-22 -5 -50 -5 -48 0 -50 1 -67 38 l-17 37 -4 -38 -3 -38 -47 3 -47 3 -3 128
-3 127 94 0 c80 0 98 -3 120 -20z m-1636 -359 c51 -24 73 -63 73 -131 0 -65
-21 -110 -63 -135 -25 -15 -52 -19 -132 -20 l-100 0 -3 153 -3 152 93 0 c70 0
104 -5 135 -19z m341 -23 l-3 -43 -62 -3 c-78 -4 -84 -22 -8 -22 l55 0 0 -45
0 -45 -55 0 c-30 0 -55 -4 -55 -10 0 -6 29 -10 66 -10 l65 0 -3 -42 -3 -43
-120 0 -120 0 -3 153 -3 152 126 0 126 0 -3 -42z m406 36 c12 -4 16 -20 16
-55 l0 -48 -49 6 c-68 8 -97 -1 -105 -33 -11 -42 16 -74 64 -74 21 0 50 4 64
10 26 9 26 9 26 -45 l0 -54 -46 -7 c-136 -20 -226 38 -228 148 -1 105 58 158
176 158 36 0 73 -3 82 -6z m322 -139 c29 -77 54 -146 54 -152 0 -9 -18 -13
-56 -13 -53 0 -56 2 -67 30 -10 26 -17 30 -47 30 -30 0 -37 -4 -47 -30 -11
-28 -14 -30 -67 -30 -38 0 -56 4 -56 13 0 6 22 68 48 137 27 69 52 133 55 143
6 15 16 17 68 15 l61 -3 54 -140z m288 139 c11 -4 16 -19 16 -49 l0 -44 -32
10 c-42 12 -78 12 -78 -1 0 -5 18 -14 39 -20 57 -15 81 -39 88 -86 5 -36 1
-46 -24 -74 -26 -29 -37 -34 -89 -38 -32 -2 -75 0 -94 5 -33 9 -35 12 -38 55
l-3 46 47 -14 c46 -14 95 -10 78 5 -5 4 -25 14 -44 21 -58 22 -80 48 -80 96 0
35 5 47 31 68 26 22 40 26 99 26 38 0 75 -3 84 -6z m339 -143 c31 -81 57 -151
57 -155 0 -4 -26 -6 -57 -4 -52 3 -59 6 -71 31 -10 21 -20 27 -46 27 -28 0
-36 -5 -46 -30 -12 -28 -16 -30 -66 -30 -29 0 -55 3 -57 8 -3 4 17 63 44 132
73 188 60 170 127 170 l58 0 57 -149z"/>
<path d="M1340 1805 c0 -11 7 -15 23 -13 12 2 22 8 22 13 0 6 -10 11 -22 13
-16 2 -23 -2 -23 -13z"/>
<path d="M1637 1781 c-3 -14 0 -21 9 -21 16 0 18 9 5 28 -6 10 -10 9 -14 -7z"/>
<path d="M2230 1800 c0 -13 7 -20 20 -20 13 0 20 7 20 20 0 13 -7 20 -20 20
-13 0 -20 -7 -20 -20z"/>
<path d="M2516 1785 c-9 -23 -8 -25 9 -25 17 0 19 9 6 28 -7 11 -10 10 -15 -3z"/>
<path d="M2790 1805 c0 -11 7 -15 23 -13 12 2 22 8 22 13 0 6 -10 11 -22 13
-16 2 -23 -2 -23 -13z"/>
<path d="M1160 1381 c0 -64 9 -74 44 -48 13 10 17 24 14 57 -3 41 -6 45 -30
48 -28 3 -28 3 -28 -57z"/>
<path d="M2207 1390 c-4 -15 0 -20 13 -20 13 0 17 5 13 20 -3 11 -9 20 -13 20
-4 0 -10 -9 -13 -20z"/>
<path d="M2840 1413 c0 -6 -3 -18 -6 -27 -4 -11 -1 -16 10 -16 9 0 16 6 16 13
0 16 -20 46 -20 30z"/>
</g>
</svg>
