<svg width="16" height="16" viewBox="0 0 16 16" fill="none" xmlns="http://www.w3.org/2000/svg">
<g id="logo 1" clip-path="url(#clip0_1_146)">
<g id="Clip path group">
<mask id="mask0_1_146" style="mask-type:luminance" maskUnits="userSpaceOnUse" x="5" y="0" width="2" height="5">
<g id="c96ecf706a">
<path id="Vector" d="M5.52727 0.512001H6.93333V4.352H5.52727V0.512001Z" fill="white"/>
</g>
</mask>
<g mask="url(#mask0_1_146)">
<g id="Group">
<g id="Group_2">
<g id="Group_3">
<path id="Vector_2" d="M6.0595 10.9987C5.97729 11.004 5.89384 10.951 5.82847 10.8367C5.76327 10.7227 5.72889 10.57 5.72624 10.4147L5.56005 1.86833C5.55703 1.71367 5.58556 1.55633 5.64598 1.43433C5.76699 1.18967 5.97056 1.176 6.10061 1.404C6.16563 1.51767 6.20018 1.67067 6.20319 1.82567L6.35733 0" fill="#004AAD"/>
</g>
</g>
</g>
</g>
</g>
<g id="Clip path group_2">
<mask id="mask1_1_146" style="mask-type:luminance" maskUnits="userSpaceOnUse" x="0" y="4" width="5" height="12">
<g id="1d51ddc84a">
<path id="Vector_3" d="M0.0212097 4.57667H4.07443V15.867H0.0212097V4.57667Z" fill="white"/>
</g>
</mask>
<g mask="url(#mask1_1_146)">
<g id="Group_4">
<path id="Vector_4" d="M11.0085 9.85867C11.0612 9.95133 11.0941 10.0797 11.0941 10.222C11.0941 10.364 11.0614 10.4923 11.0085 10.5853L8.09526 15.717C8.04261 15.81 7.96951 15.8677 7.88901 15.8677C7.72784 15.8677 7.59735 15.6377 7.59735 15.3537C7.59735 15.212 7.63011 15.0833 7.68276 14.9903L10.3903 10.222L7.68276 5.45333C7.63011 5.36033 7.59735 5.23167 7.59735 5.09C7.59735 4.80633 7.72784 4.57633 7.88901 4.57633C7.96951 4.57633 8.04261 4.63367 8.09526 4.72667L11.0085 9.85867ZM3.22803 15.867C3.22822 15.867 3.22822 15.867 3.2286 15.867C3.38939 15.867 3.51989 15.637 3.51989 15.3537C3.51989 15.2117 3.48731 15.0833 3.43428 14.9903L0.726705 10.222L3.43428 5.45333C3.48693 5.36033 3.51951 5.23167 3.51951 5.09C3.51951 4.80633 3.38902 4.57633 3.22803 4.57633C3.14754 4.57633 3.07443 4.63367 3.02178 4.72667L0.108523 9.85867C0.0554924 9.95133 0.0229167 10.0797 0.0229167 10.222C0.0229167 10.364 0.0554924 10.4923 0.108523 10.5853L3.02178 15.717C3.07443 15.8097 3.14735 15.867 3.22746 15.867C3.22765 15.867 3.22765 15.867 0 0" fill="#004AAD"/>
</g>
</g>
</g>
<g id="Group_5">
<path id="Vector_5" d="M15.8852 9.78333C15.9381 9.87633 15.9708 10.0047 15.9708 10.1467C15.9708 10.2887 15.9383 10.417 15.8852 10.51L12.9722 15.642C12.9193 15.7347 12.8462 15.7923 12.7659 15.7923C12.6047 15.7923 12.4742 15.5623 12.4742 15.2787C12.4742 15.137 12.5068 15.008 12.5597 14.9153L15.267 10.1467L12.5597 5.378C12.5068 5.28533 12.4742 5.15633 12.4742 5.01467C12.4742 4.731 12.6047 4.501 12.7659 4.501C12.8462 4.501 12.9193 4.55867 12.9722 4.65133L15.8852 9.78333ZM8.10492 15.7917C8.10511 15.7917 8.10511 15.7917 8.10549 0Z" fill="#004AAD"/>
</g>
<g id="Group_6">
<path id="Vector_6" d="M7.61307 0.281663C7.67539 0.17233 7.76118 0.103996 7.85645 0.103996C7.95171 0.103996 8.0377 0.171663 8.10001 0.281663L11.5381 6.32533C11.6002 6.43466 11.6388 6.58633 11.6388 6.753C11.6388 7.08733 11.4847 7.358 11.2945 7.358C11.1996 7.358 11.1135 7.29033 11.0511 7.181L7.85645 1.564L4.66175 7.181C4.59963 7.29033 4.51326 7.358 4.41838 7.358C4.22823 7.358 4.07425 7.08733 4.07425 6.753C4.07425 6.58633 4.1127 6.43466 4.17501 6.32533" fill="#004AAD"/>
</g>
<g id="Group_7">
<g id="Group_8">
<g id="Group_9">
<path id="Vector_7" d="M3.97607 9.29366H3.69273V8.76433H4.67758V9.29366H4.39425V10.723H3.97607V9.29366Z" fill="#004AAD"/>
</g>
</g>
</g>
<g id="Group_10">
<g id="Group_11">
<g id="Group_12">
<path id="Vector_8" d="M4.72926 8.76433H5.35502C5.49176 8.76433 5.59612 8.83199 5.6679 8.96699C5.74006 9.10133 5.77623 9.27833 5.77623 9.49766C5.77623 9.62299 5.75805 9.73599 5.72169 9.83633C5.68532 9.93699 5.63779 10.0217 5.57926 10.091C5.60085 10.117 5.61657 10.1503 5.62623 10.191L5.75729 10.723H5.32169L5.21335 10.2883C5.20729 10.2637 5.20066 10.2467 5.19366 10.2377C5.18703 10.229 5.17737 10.2243 5.16487 10.2243H5.14745V10.723H4.72926V8.76433ZM5.24896 9.64966C5.31714 9.64966 5.35123 9.59899 5.35123 9.49766C5.35123 9.44266 5.34328 9.40266 5.32775 9.37766C5.31203 9.35199 5.28835 9.33899 5.25654 9.33899H5.14745V9.64966H5.24896Z" fill="#004AAD"/>
</g>
</g>
</g>
<g id="Group_13">
<g id="Group_14">
<g id="Group_15">
<path id="Vector_9" d="M6.25665 8.76433H6.68999L7.11877 10.723H6.68317L6.60362 10.3577H6.34302L6.26347 10.723H5.82787L6.25665 8.76433ZM6.55741 9.85633L6.47256 9.48166L6.38771 9.85633H6.55741Z" fill="#004AAD"/>
</g>
</g>
</g>
<g id="Group_16">
<g id="Group_17">
<g id="Group_18">
<path id="Vector_10" d="M7.20525 8.76433H7.60222L7.82873 9.57366L8.05373 8.76433H8.4507V10.723H8.03252V10.035L7.93403 10.3883H7.72191L7.62343 10.035V10.723H7.20525V8.76433Z" fill="#004AAD"/>
</g>
</g>
</g>
<g id="Group_19">
<g id="Group_20">
<g id="Group_21">
<path id="Vector_11" d="M8.57196 8.76433H9.19772C9.28957 8.76433 9.36685 8.79866 9.42954 8.86699C9.4926 8.93466 9.53976 9.02633 9.5712 9.14166C9.60302 9.25733 9.61893 9.38633 9.61893 9.52833C9.61893 9.66966 9.60113 9.79833 9.5659 9.91366C9.53105 10.0293 9.48105 10.1203 9.4159 10.187C9.35075 10.253 9.27537 10.2857 9.19014 10.2857H8.99014V10.723H8.57196V8.76433ZM9.09166 9.70966C9.12537 9.70966 9.15094 9.69366 9.16817 9.66166C9.18522 9.62899 9.19393 9.58433 9.19393 9.52833C9.19393 9.40233 9.1623 9.33899 9.09923 9.33899H8.99014V9.70966H9.09166Z" fill="#004AAD"/>
</g>
</g>
</g>
<g id="Group_22">
<g id="Group_23">
<g id="Group_24">
<path id="Vector_12" d="M10.0648 8.76433H10.4981L10.9269 10.723H10.4913L10.4118 10.3577H10.1512L10.0716 10.723H9.63602L10.0648 8.76433ZM10.3656 9.85633L10.2807 9.48166L10.1959 9.85633H10.3656Z" fill="#004AAD"/>
</g>
</g>
</g>
<g id="Group_25">
<g id="Group_26">
<g id="Group_27">
<path id="Vector_13" d="M11.0134 8.76433H11.6391C11.7759 8.76433 11.8802 8.83199 11.952 8.96699C12.0242 9.10133 12.0604 9.27833 12.0604 9.49766C12.0604 9.62299 12.0422 9.73599 12.0058 9.83633C11.9694 9.93699 11.9219 10.0217 11.8634 10.091C11.885 10.117 11.9007 10.1503 11.9104 10.191L12.0414 10.723H11.6058L11.4975 10.2883C11.4914 10.2637 11.4848 10.2467 11.4778 10.2377C11.4711 10.229 11.4615 10.2243 11.449 10.2243H11.4316V10.723H11.0134V8.76433ZM11.5331 9.64966C11.6013 9.64966 11.6354 9.59899 11.6354 9.49766C11.6354 9.44266 11.6274 9.40266 11.6119 9.37766C11.5961 9.35199 11.5725 9.33899 11.5407 9.33899H11.4316V9.64966H11.5331Z" fill="#004AAD"/>
</g>
</g>
</g>
<g id="Group_28">
<g id="Group_29">
<g id="Group_30">
<path id="Vector_14" d="M3.84738 11.5331H4.46859C4.92049 11.5331 5.14662 11.9218 5.14662 12.6985C5.14662 13.0871 5.08791 13.3738 4.97087 13.5585C4.85363 13.7425 4.68621 13.8345 4.46859 13.8345H3.84738V11.5331ZM4.41178 13.1771C4.49151 13.1771 4.5506 13.1445 4.58905 13.0785C4.62787 13.0128 4.64738 12.8861 4.64738 12.6985C4.64738 12.5698 4.63867 12.4718 4.62162 12.4051C4.60496 12.3385 4.57996 12.2945 4.54662 12.2731C4.51329 12.2518 4.46821 12.2411 4.41178 12.2411H4.33829V13.1771H4.41178Z" fill="#004AAD"/>
</g>
</g>
</g>
<g id="Group_31">
<g id="Group_32">
<g id="Group_33">
<path id="Vector_15" d="M5.2482 11.5331H6.29365V12.1545H5.73911V12.3625H6.21638V13.0051H5.73911V13.2131H6.29365V13.8345H5.2482V11.5331Z" fill="#004AAD"/>
</g>
</g>
</g>
<g id="Group_34">
<g id="Group_35">
<g id="Group_36">
<path id="Vector_16" d="M7.7249 13.8705C7.46771 13.8705 7.27301 13.7705 7.14081 13.5705C7.00899 13.3705 6.94308 13.0751 6.94308 12.6838C6.94308 12.2938 7.00824 11.9985 7.13854 11.7985C7.26922 11.5978 7.46354 11.4971 7.72112 11.4971C7.80085 11.4971 7.87282 11.5075 7.93702 11.5278C8.00104 11.5485 8.06657 11.5798 8.13324 11.6225V12.3771C8.00994 12.2768 7.88343 12.2265 7.75369 12.2265C7.65218 12.2265 7.57509 12.2611 7.52263 12.3305C7.47055 12.3991 7.4446 12.5168 7.4446 12.6838C7.4446 12.8485 7.4713 12.9658 7.5249 13.0358C7.57831 13.1061 7.65596 13.1411 7.75748 13.1411C7.88721 13.1411 8.01373 13.0915 8.13702 12.9918V13.7451C8.07074 13.7878 8.0054 13.8195 7.94081 13.8398C7.87661 13.8601 7.80464 13.8705 7.7249 13.8705Z" fill="#004AAD"/>
</g>
</g>
</g>
<g id="Group_37">
<g id="Group_38">
<g id="Group_39">
<path id="Vector_17" d="M8.70151 11.5331H9.21136L9.71439 13.8345H9.20303L9.10984 13.4051H8.80303L8.70984 13.8345H8.19772L8.70151 11.5331ZM9.05454 12.8158L8.9553 12.3771L8.85606 12.8158H9.05454Z" fill="#004AAD"/>
</g>
</g>
</g>
<g id="Group_40">
<g id="Group_41">
<g id="Group_42">
<path id="Vector_18" d="M10.2683 13.8705C10.1754 13.8705 10.0861 13.8561 10.0009 13.8278C9.9155 13.7985 9.84429 13.7591 9.78728 13.7091V13.0625C9.85243 13.1178 9.9244 13.1631 10.0032 13.1985C10.0824 13.2341 10.1534 13.2518 10.2161 13.2518C10.2564 13.2518 10.288 13.2431 10.3108 13.2251C10.3339 13.2075 10.3456 13.1818 10.3456 13.1478C10.3456 13.1195 10.336 13.0965 10.3168 13.0785C10.2981 13.0608 10.263 13.0365 10.2115 13.0051C10.1519 12.9698 10.118 12.9498 10.11 12.9451C10.0236 12.8875 9.9566 12.8278 9.90925 12.7665C9.86171 12.7045 9.82743 12.6305 9.80622 12.5451C9.78539 12.4591 9.77516 12.3491 9.77516 12.2158C9.77516 11.9731 9.82289 11.7928 9.91834 11.6745C10.0138 11.5565 10.1577 11.4971 10.3502 11.4971C10.4138 11.4971 10.4875 11.5088 10.5714 11.5318C10.6551 11.5541 10.7248 11.5795 10.7805 11.6078V12.2585C10.6517 12.1661 10.536 12.1198 10.4335 12.1198C10.3289 12.1198 10.2767 12.1498 10.2767 12.2091C10.2767 12.2325 10.286 12.2518 10.3047 12.2678C10.3238 12.2831 10.3619 12.3048 10.4191 12.3331L10.4714 12.3585C10.5759 12.4085 10.6555 12.4698 10.71 12.5425C10.7649 12.6155 10.8024 12.6991 10.8221 12.7931C10.8418 12.8875 10.8517 13.0048 10.8517 13.1451C10.8517 13.3691 10.8019 13.5461 10.7024 13.6758C10.6028 13.8058 10.4581 13.8705 10.2683 13.8705Z" fill="#004AAD"/>
</g>
</g>
</g>
<g id="Group_43">
<g id="Group_44">
<g id="Group_45">
<path id="Vector_19" d="M11.4158 11.5331H11.9257L12.4287 13.8345H11.9174L11.8242 13.4051H11.5174L11.4242 13.8345H10.912L11.4158 11.5331ZM11.7689 12.8158L11.6696 12.3771L11.5704 12.8158H11.7689Z" fill="#004AAD"/>
</g>
</g>
</g>
</g>
<defs>
<clipPath id="clip0_1_146">
<rect width="16" height="16" fill="white"/>
</clipPath>
</defs>
</svg>
