<svg width="110" height="88" viewBox="0 0 110 88" fill="none" xmlns="http://www.w3.org/2000/svg">
<g filter="url(#filter0_d_126_1070)">
<rect x="20" y="20.0001" width="70" height="48" rx="15.875" fill="white"/>
<path fill-rule="evenodd" clip-rule="evenodd" d="M39.799 50.4819H36.6878C36.4749 50.4819 36.2938 50.6367 36.2606 50.8468L35.0023 58.8249C34.9773 58.9824 35.0992 59.1243 35.2589 59.1243H36.7442C36.9571 59.1243 37.1382 58.9695 37.1714 58.759L37.5108 56.6072C37.5435 56.3965 37.725 56.2419 37.9375 56.2419H38.9224C40.9719 56.2419 42.1546 55.2502 42.4637 53.2849C42.6028 52.4251 42.4696 51.7495 42.0668 51.2762C41.6247 50.7569 40.8403 50.4819 39.799 50.4819ZM40.158 53.3958C39.9879 54.5123 39.1349 54.5123 38.3101 54.5123H37.8406L38.17 52.4272C38.1895 52.3013 38.2987 52.2085 38.4261 52.2085H38.6413C39.2031 52.2085 39.7331 52.2085 40.007 52.5287C40.1702 52.7198 40.2203 53.0036 40.158 53.3958ZM49.0993 53.36H47.6094C47.4824 53.36 47.3727 53.4529 47.3532 53.579L47.2873 53.9956L47.1831 53.8447C46.8605 53.3765 46.1414 53.22 45.4235 53.22C43.7769 53.22 42.3708 54.467 42.0969 56.2163C41.9546 57.0887 42.1569 57.923 42.6519 58.5049C43.106 59.0398 43.7557 59.2628 44.5285 59.2628C45.8551 59.2628 46.5908 58.4097 46.5908 58.4097L46.5243 58.8238C46.4993 58.9822 46.6212 59.1241 46.7799 59.1241H48.122C48.3355 59.1241 48.5155 58.9693 48.5492 58.7588L49.3544 53.6594C49.3799 53.5026 49.2584 53.36 49.0993 53.36ZM47.0224 56.2598C46.8786 57.111 46.2031 57.6824 45.3416 57.6824C44.9089 57.6824 44.563 57.5436 44.3412 57.2807C44.1209 57.0196 44.0372 56.6478 44.1073 56.2339C44.2416 55.3899 44.9285 54.8 45.7769 54.8C46.1999 54.8 46.5439 54.9405 46.7704 55.2057C46.9974 55.4737 47.0875 55.8476 47.0224 56.2598ZM55.537 53.3598H57.0342C57.2439 53.3598 57.3662 53.595 57.2471 53.767L52.2675 60.9548C52.1869 61.0712 52.054 61.1405 51.9121 61.1405H50.4167C50.2062 61.1405 50.0833 60.9034 50.2052 60.731L51.7557 58.5424L50.1066 53.7028C50.0496 53.5346 50.1738 53.3598 50.3527 53.3598H51.8239C52.0151 53.3598 52.1837 53.4853 52.2389 53.6683L53.114 56.5912L55.1791 53.5495C55.2599 53.4308 55.3942 53.3598 55.537 53.3598Z" fill="#253B80"/>
<path fill-rule="evenodd" clip-rule="evenodd" d="M71.7703 58.825L73.0471 50.7009C73.0667 50.5748 73.176 50.482 73.3029 50.4816H74.7404C74.8991 50.4816 75.021 50.6239 74.996 50.7814L73.7368 58.7591C73.704 58.9696 73.5229 59.1243 73.3097 59.1243H72.0259C71.8671 59.1243 71.7452 58.9824 71.7703 58.825ZM61.9915 50.482H58.8797C58.6673 50.482 58.4863 50.6367 58.453 50.8468L57.1947 58.825C57.1696 58.9824 57.2915 59.1243 57.4505 59.1243H59.0471C59.1955 59.1243 59.3225 59.0161 59.3456 58.8687L59.7027 56.6073C59.7355 56.3965 59.917 56.242 60.1294 56.242H61.1138C63.1637 56.242 64.3463 55.2502 64.6555 53.2849C64.7951 52.4252 64.661 51.7496 64.2585 51.2763C63.8166 50.7569 63.0328 50.482 61.9915 50.482ZM62.3505 53.3959C62.1808 54.5123 61.3277 54.5123 60.5025 54.5123H60.0334L60.3633 52.4273C60.3829 52.3014 60.4911 52.2085 60.6189 52.2085H60.8341C61.3955 52.2085 61.9261 52.2085 62.1997 52.5287C62.3631 52.7199 62.4128 53.0037 62.3505 53.3959ZM71.2909 53.3601H69.8021C69.6741 53.3601 69.5654 53.4529 69.5463 53.579L69.4804 53.9957L69.3758 53.8447C69.0532 53.3765 68.3345 53.2201 67.6166 53.2201C65.9701 53.2201 64.5644 54.4671 64.2905 56.2163C64.1486 57.0887 64.3501 57.9231 64.845 58.505C65.3 59.0399 65.9488 59.2629 66.7216 59.2629C68.0482 59.2629 68.7838 58.4098 68.7838 58.4098L68.7174 58.8239C68.6924 58.9822 68.8143 59.1241 68.9741 59.1241H70.3156C70.528 59.1241 70.709 58.9694 70.7423 58.7589L71.548 53.6595C71.5726 53.5026 71.4507 53.3601 71.2909 53.3601ZM69.2143 56.2599C69.0713 57.1111 68.3949 57.6824 67.5332 57.6824C67.1014 57.6824 66.7549 57.5437 66.5328 57.2807C66.3126 57.0197 66.2299 56.6479 66.2991 56.234C66.4341 55.39 67.1202 54.8001 67.9686 54.8001C68.3918 54.8001 68.7356 54.9405 68.9623 55.2058C69.1901 55.4738 69.2802 55.8477 69.2143 56.2599Z" fill="#179BD7"/>
<path d="M51.3143 47.6279L51.6968 45.1984L50.8448 45.1786H46.7764L49.6037 27.2509C49.6124 27.1968 49.641 27.1463 49.6827 27.1105C49.7244 27.0747 49.7778 27.0549 49.8334 27.0549H56.6934C58.9709 27.0549 60.5425 27.5288 61.3631 28.4642C61.7478 28.9031 61.9928 29.3616 62.1114 29.8662C62.2356 30.3958 62.2379 31.0284 62.1164 31.8L62.1076 31.8563V32.3506L62.4924 32.5686C62.8164 32.7405 63.0737 32.9372 63.2711 33.1625C63.6004 33.5376 63.8133 34.0145 63.9031 34.5798C63.996 35.1612 63.9653 35.8531 63.8133 36.6364C63.6377 37.5374 63.3539 38.3222 62.9707 38.9643C62.6181 39.5559 62.169 40.0466 61.636 40.427C61.1269 40.7883 60.5221 41.0626 59.8383 41.2382C59.1756 41.4106 58.4202 41.4977 57.5915 41.4977H57.0577C56.676 41.4977 56.305 41.6352 56.0141 41.8817C55.7223 42.1333 55.529 42.4769 55.4699 42.8529L55.4297 43.0716L54.7539 47.3535L54.7231 47.5108C54.7151 47.5607 54.7012 47.5855 54.6808 47.6024C54.6625 47.6175 54.6362 47.6279 54.6105 47.6279H51.3143Z" fill="#253B80"/>
<path d="M62.8558 31.9135C62.8354 32.0444 62.812 32.1782 62.7857 32.3157C61.8808 36.9605 58.7859 38.5651 54.8328 38.5651H52.8202C52.3368 38.5651 51.9294 38.9161 51.8541 39.393L50.8235 45.9284L50.5317 47.7809C50.4827 48.0939 50.7242 48.3762 51.04 48.3762H54.6099C55.0326 48.3762 55.3915 48.0691 55.4581 47.6522L55.4932 47.4707L56.1654 43.2055L56.2086 42.9716C56.2743 42.5533 56.6341 42.2461 57.0568 42.2461H57.5907C61.0492 42.2461 63.7568 40.8419 64.5482 36.7784C64.8787 35.0809 64.7076 33.6636 63.8328 32.6667C63.5682 32.3661 63.2398 32.1168 62.8558 31.9135Z" fill="#179BD7"/>
<path d="M61.9089 31.5365C61.7708 31.4963 61.6281 31.4597 61.4817 31.4268C61.3348 31.3946 61.1841 31.3661 61.0291 31.3412C60.4864 31.2535 59.8919 31.2118 59.2548 31.2118H53.8779C53.7455 31.2118 53.6198 31.2418 53.5072 31.2959C53.2592 31.4151 53.075 31.6499 53.0304 31.9373L51.8864 39.1821L51.8535 39.3934C51.9289 38.9166 52.3363 38.5655 52.8196 38.5655H54.8323C58.7853 38.5655 61.8805 36.9602 62.7851 32.3161C62.8121 32.1786 62.8348 32.0448 62.8552 31.9139C62.6264 31.7925 62.3784 31.6886 62.1114 31.6001C62.0457 31.5782 61.9778 31.557 61.9089 31.5365Z" fill="#222D65"/>
<path d="M53.0292 31.9371C53.0738 31.6497 53.2582 31.4149 53.506 31.2964C53.6195 31.2423 53.7446 31.2123 53.8768 31.2123H59.2538C59.8909 31.2123 60.4854 31.254 61.0279 31.3418C61.1831 31.3666 61.3338 31.3951 61.4808 31.4273C61.6271 31.4602 61.7696 31.4968 61.9079 31.537C61.9766 31.5575 62.0446 31.5787 62.1111 31.5999C62.378 31.6884 62.626 31.793 62.8549 31.9137C63.1242 30.1972 62.8528 29.0285 61.9248 27.9702C60.9016 26.8052 59.0549 26.3064 56.6919 26.3064H49.8317C49.349 26.3064 48.9374 26.6574 48.8626 27.135L46.0054 45.247C45.949 45.6053 46.2254 45.9287 46.5866 45.9287H50.822L51.8854 39.1819L53.0292 31.9371Z" fill="#253B80"/>
</g>
<defs>
<filter id="filter0_d_126_1070" x="0" y="0.00012207" width="110" height="88" filterUnits="userSpaceOnUse" color-interpolation-filters="sRGB">
<feFlood flood-opacity="0" result="BackgroundImageFix"/>
<feColorMatrix in="SourceAlpha" type="matrix" values="0 0 0 0 0 0 0 0 0 0 0 0 0 0 0 0 0 0 127 0" result="hardAlpha"/>
<feOffset/>
<feGaussianBlur stdDeviation="10"/>
<feComposite in2="hardAlpha" operator="out"/>
<feColorMatrix type="matrix" values="0 0 0 0 0 0 0 0 0 0 0 0 0 0 0 0 0 0 0.07 0"/>
<feBlend mode="normal" in2="BackgroundImageFix" result="effect1_dropShadow_126_1070"/>
<feBlend mode="normal" in="SourceGraphic" in2="effect1_dropShadow_126_1070" result="shape"/>
</filter>
</defs>
</svg>
