<svg width="22" height="20" viewBox="0 0 22 20" fill="none" xmlns="http://www.w3.org/2000/svg">
<path d="M21.0617 10.0602C21.0615 8.13735 20.5103 6.25481 19.4734 4.63546C18.4365 3.01611 16.9573 1.72778 15.211 0.922985C13.4646 0.118189 11.5243 -0.169366 9.61956 0.0943624C7.71486 0.358091 5.92561 1.16206 4.46364 2.41109C3.00166 3.66011 1.92819 5.30189 1.3703 7.14205C0.812418 8.98222 0.793484 10.9437 1.31574 12.7943C1.838 14.6449 2.87958 16.3071 4.31717 17.5841C5.75476 18.8611 7.52816 19.6995 9.42741 19.9999V12.969H6.87247V10.0602H9.42741V7.84321C9.42741 5.32181 10.93 3.9282 13.2275 3.9282C13.9823 3.93903 14.7353 4.0046 15.4806 4.12441V6.60137H14.2111C13.829 6.55064 13.4423 6.65376 13.1361 6.88805C12.83 7.12234 12.6294 7.46862 12.5785 7.85075C12.5641 7.95776 12.5619 8.06606 12.5718 8.17358V10.0602H15.3599L14.9138 12.969H12.566V19.9999C14.9339 19.6268 17.0909 18.4204 18.6484 16.5982C20.206 14.7759 21.0618 12.4574 21.0617 10.0602Z" fill="#3A81EF"/>
</svg>
