<svg width="258" height="118" viewBox="0 0 258 118" fill="none" xmlns="http://www.w3.org/2000/svg">
<path d="M95.1278 86.2313L98.0652 85.7272V65.075L95.1278 64.5709V62.2842H115.401V68.5861H112.374L112.085 65.075H101.615V74.1137H111.761V76.9045H101.615V85.7272L104.553 86.2313V88.5H95.1278V86.2313Z" fill="#404040"/>
<path d="M129.602 62.3022C132.461 62.3022 134.653 62.9384 136.179 64.2108C137.705 65.4711 138.468 67.2657 138.468 69.5944C138.468 70.8667 138.113 71.9951 137.405 72.9794C136.696 73.9637 135.681 74.7379 134.359 75.3021C135.789 75.7702 136.816 76.5324 137.441 77.5887C138.077 78.6451 138.396 79.9474 138.396 81.4959V83.6025C138.396 84.4068 138.498 85.001 138.702 85.3851C138.906 85.7692 139.243 85.9973 139.711 86.0693L140.576 86.1773V88.5H138.666C137.285 88.5 136.299 88.0199 135.711 87.0596C135.134 86.0993 134.846 84.9349 134.846 83.5665V81.5319C134.846 80.1035 134.431 78.9572 133.602 78.0929C132.773 77.2286 131.662 76.7965 130.268 76.7965H124.574V85.7272L127.511 86.2313V88.5H118.086V86.2313L121.024 85.7272V65.075L118.086 64.5709V62.3022H121.024H129.602ZM124.574 74.0057H129.241C131.224 74.0057 132.665 73.6276 133.566 72.8713C134.467 72.1151 134.918 71.0108 134.918 69.5584C134.918 68.1779 134.485 67.0856 133.62 66.2814C132.755 65.4771 131.416 65.075 129.602 65.075H124.574V74.0057Z" fill="#404040"/>
<path d="M166.436 75.5901C166.436 79.4073 165.337 82.5762 163.138 85.097C160.952 87.6177 158.117 88.8781 154.633 88.8781C151.245 88.8781 148.493 87.6177 146.379 85.097C144.265 82.5762 143.207 79.4073 143.207 75.5901V75.212C143.207 71.4069 144.265 68.238 146.379 65.7052C148.493 63.1724 151.245 61.9061 154.633 61.9061C158.117 61.9061 160.952 63.1724 163.138 65.7052C165.337 68.238 166.436 71.4069 166.436 75.212V75.5901ZM162.886 75.176C162.886 72.1271 162.153 69.6424 160.688 67.7218C159.234 65.7892 157.216 64.8229 154.633 64.8229C152.158 64.8229 150.223 65.7892 148.83 67.7218C147.448 69.6544 146.757 72.1391 146.757 75.176V75.5901C146.757 78.6631 147.448 81.1658 148.83 83.0984C150.223 85.019 152.158 85.9792 154.633 85.9792C157.252 85.9792 159.282 85.019 160.724 83.0984C162.165 81.1778 162.886 78.6751 162.886 75.5901V75.176Z" fill="#404040"/>
<path d="M194.819 62.2842V64.5709L191.882 65.075V88.5H188.331L175.717 68.262L175.609 68.298V85.7272L178.546 86.2313V88.5H169.121V86.2313L172.059 85.7272V65.075L169.121 64.5709V62.2842H172.059H175.609L188.223 82.5042L188.331 82.4682V65.075L185.394 64.5709V62.2842H191.882H194.819Z" fill="#404040"/>
<path d="M218.426 62.2842V68.0819H215.399L215.128 65.075H209.308V85.7272L212.245 86.2313V88.5H202.82V86.2313L205.758 85.7272V65.075H199.919L199.667 68.0819H196.621V62.2842H218.426Z" fill="#404040"/>
<path d="M220.354 64.5709V62.2842H229.779V64.5709L226.842 65.075V85.7272L229.779 86.2313V88.5H220.354V86.2313L223.292 85.7272V65.075L220.354 64.5709Z" fill="#404040"/>
<path d="M258 62.2842V64.5709L255.063 65.075V88.5H251.512L238.898 68.262L238.79 68.298V85.7272L241.727 86.2313V88.5H232.302V86.2313L235.24 85.7272V65.075L232.302 64.5709V62.2842H235.24H238.79L251.404 82.5042L251.512 82.4682V65.075L248.575 64.5709V62.2842H255.063H258Z" fill="#404040"/>
<g clip-path="url(#clip0_124_25)">
<path d="M102.284 48.7569H94.3221V8.16903H51.0949V0H102.284V48.7569Z" fill="#404040"/>
<path d="M43.0204 118V88.9501H0V40.578H8.14548V80.7815H51.1655V99.6204L70.1118 80.8819L80.3225 80.9864L43.0204 118Z" fill="#404040"/>
<path d="M16.6285 70.1919L23.2348 73.7283L51.0479 21.4709L44.4416 17.9345L16.6285 70.1919Z" fill="#404040"/>
<path d="M76.4318 13.4083H68.8391V40.1343H76.4318V13.4083Z" fill="#404040"/>
<path d="M62.1651 17.6778L58.9551 24.5729L83.0991 35.878L86.309 28.9829L62.1651 17.6778Z" fill="#404040"/>
<path d="M83.0732 17.6106L58.9293 28.9157L62.1901 35.9201L86.3341 24.615L83.0732 17.6106Z" fill="#404040"/>
<path d="M69.213 36.8794L76.8057 33.3285V33.1746L76.9698 33.2515L85.9493 29.0532L81.7593 27.0944L69.213 32.9597V36.8794Z" fill="#404040"/>
</g>
<path d="M134.429 100H141V106.571H134.429V100Z" fill="#404040"/>
<path d="M95 100H127.857V106.571H95V100Z" fill="#404040"/>
<defs>
<clipPath id="clip0_124_25">
<rect width="102.284" height="118" fill="white"/>
</clipPath>
</defs>
</svg>
