<svg width="4064" height="880" viewBox="0 0 4064 880" fill="none" xmlns="http://www.w3.org/2000/svg">
<path d="M1199.97 863.5C1151.81 863.5 1108.46 854.979 1069.93 837.936C1032.14 820.151 1002.13 796.439 979.903 766.799C957.674 736.418 945.818 702.702 944.336 665.652H1075.49C1077.71 691.587 1089.94 713.446 1112.17 731.23C1135.14 748.273 1163.67 756.794 1197.75 756.794C1233.31 756.794 1260.73 750.126 1280 736.788C1300.01 722.708 1310.01 704.925 1310.01 683.436C1310.01 660.464 1298.89 643.421 1276.66 632.306C1255.17 621.191 1220.72 608.965 1173.29 595.627C1127.36 583.029 1089.94 570.803 1061.04 558.947C1032.14 547.09 1006.95 528.937 985.461 504.483C964.714 480.03 954.339 447.796 954.339 407.782C954.339 375.178 963.973 345.537 983.238 318.86C1002.5 291.443 1029.92 269.954 1065.49 254.392C1101.79 238.831 1143.29 231.051 1189.96 231.051C1259.62 231.051 1315.57 248.835 1357.8 284.403C1400.77 319.231 1423.74 367.026 1426.71 427.789H1300.01C1297.78 400.371 1286.67 378.511 1266.66 362.209C1246.65 345.907 1219.61 337.756 1185.52 337.756C1152.18 337.756 1126.62 344.055 1108.83 356.653C1091.05 369.249 1082.16 385.922 1082.16 406.67C1082.16 422.972 1088.09 436.682 1099.94 447.796C1111.8 458.911 1126.25 467.803 1143.29 474.472C1160.34 480.4 1185.52 488.181 1218.86 497.814C1263.33 509.671 1299.63 521.897 1327.79 534.494C1356.69 546.35 1381.51 564.133 1402.25 587.846C1423 611.558 1433.75 643.051 1434.49 682.324C1434.49 717.151 1424.85 748.273 1405.59 775.691C1386.32 803.108 1358.92 824.597 1323.35 840.158C1288.52 855.72 1247.39 863.5 1199.97 863.5Z" fill="#0C1822"/>
<path d="M1652.53 344.425V683.436C1652.53 706.406 1657.72 723.079 1668.09 733.454C1679.21 743.086 1697.73 747.903 1723.67 747.903H1801.48V853.497H1701.44C1644.38 853.497 1600.67 840.159 1570.29 813.483C1539.91 786.806 1524.72 743.458 1524.72 683.436V344.425H1452.47V241.054H1524.72V88.7761H1652.53V241.054H1801.48V344.425H1652.53Z" fill="#0C1822"/>
<path d="M1978.28 329.976C1996.8 298.853 2021.24 274.77 2051.63 257.727C2082.75 239.943 2119.43 231.051 2161.67 231.051V362.209H2129.43C2079.78 362.209 2041.99 374.807 2016.06 400.001C1990.87 425.195 1978.28 468.914 1978.28 531.159V853.497H1851.56V241.054H1978.28V329.976Z" fill="#0C1822"/>
<path d="M2338.15 241.054V853.497H2211.44V241.054H2338.15Z" fill="#0C1822"/>
<path d="M2395.58 544.498C2395.58 482.994 2408.18 428.53 2433.38 381.105C2459.31 333.681 2494.13 297 2537.85 271.065C2582.31 244.389 2631.58 231.051 2685.68 231.051C2725.68 231.051 2764.96 239.942 2803.49 257.727C2842.76 274.77 2873.88 297.741 2896.86 326.641V30.9771H3024.67V853.497H2896.86V761.241C2876.11 790.881 2847.21 815.335 2810.16 834.601C2773.85 853.867 2731.98 863.5 2684.57 863.5C2631.21 863.5 2582.31 850.162 2537.85 823.485C2494.13 796.068 2459.31 758.277 2433.38 710.111C2408.18 661.205 2395.58 606.002 2395.58 544.498ZM2896.86 546.721C2896.86 504.483 2887.96 467.803 2870.18 436.682C2853.14 405.558 2830.54 381.846 2802.38 365.544C2774.22 349.242 2743.84 341.09 2711.23 341.09C2678.64 341.09 2648.26 349.242 2620.1 365.544C2591.94 381.105 2568.97 404.447 2551.18 435.57C2534.14 465.951 2525.62 502.26 2525.62 544.498C2525.62 586.735 2534.14 623.785 2551.18 655.647C2568.97 687.512 2591.94 711.964 2620.1 729.007C2649 745.309 2679.38 753.461 2711.23 753.461C2743.84 753.461 2774.22 745.309 2802.38 729.007C2830.54 712.705 2853.14 688.994 2870.18 657.871C2887.96 626.008 2896.86 588.959 2896.86 546.721Z" fill="#0C1822"/>
<path d="M3685.69 532.27C3685.69 555.242 3684.21 575.99 3681.24 594.515H3213.33C3217.03 643.423 3235.18 682.694 3267.78 712.335C3300.38 741.976 3340.4 756.794 3387.82 756.794C3455.99 756.794 3504.15 728.267 3532.31 671.208H3669.02C3650.49 727.526 3616.79 773.839 3567.88 810.148C3519.71 845.716 3459.69 863.5 3387.82 863.5C3329.28 863.5 3276.67 850.533 3229.99 824.597C3184.06 797.92 3147.75 760.871 3121.07 713.446C3095.14 665.28 3082.17 609.707 3082.17 546.721C3082.17 483.734 3094.76 428.53 3119.96 381.105C3145.89 332.94 3181.83 295.889 3227.77 269.954C3274.45 244.018 3327.8 231.051 3387.82 231.051C3445.61 231.051 3497.11 243.648 3542.31 268.842C3587.52 294.037 3622.71 329.605 3647.91 375.548C3673.09 420.75 3685.69 472.99 3685.69 532.27ZM3553.43 492.257C3552.69 445.573 3536.02 408.152 3503.41 379.993C3470.81 351.836 3430.43 337.756 3382.27 337.756C3338.55 337.756 3301.13 351.836 3270 379.993C3238.88 407.411 3220.37 444.832 3214.44 492.257H3553.43Z" fill="#0C1822"/>
<path d="M3870.4 329.976C3888.92 298.853 3913.38 274.77 3943.76 257.727C3974.88 239.943 4011.56 231.051 4053.8 231.051V362.209H4021.57C3971.92 362.209 3934.13 374.807 3908.19 400.001C3883 425.195 3870.4 468.914 3870.4 531.159V853.497H3743.7V241.054H3870.4V329.976Z" fill="#0C1822"/>
<path d="M2338.15 48.3303V172.804H2211.44V48.3303H2338.15Z" fill="#0C1822"/>
<path d="M456.986 0H0L2.6768e-05 457.02L138.428 595.457H138.933V138.939H595.426V138.447L456.986 0Z" fill="#FF5076"/>
<path d="M138.44 873.335H595.426V416.315L456.996 277.88H456.493V734.396H0V734.888L138.44 873.335Z" fill="#FF5076"/>
</svg>
