<svg width="95" height="31" viewBox="0 0 95 31" fill="none" xmlns="http://www.w3.org/2000/svg">
<path fill-rule="evenodd" clip-rule="evenodd" d="M14.926 30.2565C23.1694 30.2565 29.852 23.4833 29.852 15.1282C29.852 6.77315 23.1694 0 14.926 0C6.68258 0 0 6.77315 0 15.1282C0 23.4833 6.68258 30.2565 14.926 30.2565ZM19.5824 7.04737C19.809 6.23136 19.0277 5.74883 18.3142 6.26407L8.35342 13.4562C7.57958 14.015 7.7013 15.1282 8.53626 15.1282H11.1592V15.1076H16.2712L12.1059 16.5972L10.2696 23.2091C10.043 24.0251 10.8242 24.5076 11.5378 23.9924L21.4986 16.8003C22.2724 16.2415 22.1506 15.1282 21.3157 15.1282H17.3381L19.5824 7.04737Z" fill="#4F46E5"/>
<path d="M45.658 12.9267V10.2624H48.9566V12.9267H45.658ZM39.1876 23.9645V10.3132C39.1876 9.96639 39.196 9.57309 39.2129 9.13327C39.2299 8.69345 39.2975 8.2494 39.4159 7.80112C39.5428 7.35285 39.7712 6.94686 40.101 6.58316C40.5239 6.10951 40.9807 5.7881 41.4712 5.61894C41.9703 5.44132 42.4524 5.34828 42.9176 5.33983C43.3828 5.32291 43.7803 5.31445 44.1102 5.31445H45.8102V8.10561H44.237C43.6957 8.10561 43.294 8.24517 43.0318 8.52429C42.7696 8.79495 42.6385 9.12058 42.6385 9.50119V23.9645H39.1876ZM37.0308 12.9267V10.2624H45.8102V12.9267H37.0308ZM48.8298 23.9645V5.31445H52.2806V23.9645H48.8298Z" fill="black"/>
<path d="M59.8913 24.3451C58.9102 24.3451 58.0771 24.159 57.392 23.7869C56.7153 23.4062 56.1994 22.903 55.8441 22.2771C55.4974 21.6427 55.324 20.945 55.324 20.1837C55.324 19.5494 55.4212 18.97 55.6158 18.4456C55.8103 17.9212 56.1232 17.4602 56.5546 17.0627C56.9944 16.6567 57.5823 16.3184 58.3181 16.0477C58.8256 15.8617 59.4303 15.6967 60.1324 15.5529C60.8344 15.4092 61.6294 15.2738 62.5175 15.1469C63.4056 15.0116 64.3825 14.8636 65.4483 14.7029L64.2049 15.388C64.2049 14.576 64.0104 13.9797 63.6213 13.5991C63.2322 13.2185 62.581 13.0282 61.6675 13.0282C61.16 13.0282 60.6314 13.1508 60.0816 13.3961C59.5318 13.6414 59.147 14.077 58.9271 14.7029L55.8061 13.7133C56.1529 12.5799 56.8041 11.658 57.7599 10.9475C58.7156 10.237 60.0182 9.88181 61.6675 9.88181C62.877 9.88181 63.9512 10.0679 64.89 10.44C65.8289 10.8122 66.5394 11.455 67.0215 12.3685C67.2921 12.876 67.4528 13.3834 67.5036 13.8909C67.5543 14.3984 67.5797 14.9651 67.5797 15.591V23.9645H64.5602V21.1479L64.9915 21.7316C64.3233 22.6535 63.6002 23.3217 62.822 23.7361C62.0523 24.1421 61.0754 24.3451 59.8913 24.3451ZM60.6272 21.6301C61.2615 21.6301 61.7944 21.5201 62.2257 21.3002C62.6656 21.0718 63.0123 20.8138 63.2661 20.5263C63.5283 20.2387 63.7059 19.9976 63.7989 19.8031C63.9766 19.431 64.0781 18.9996 64.1034 18.509C64.1373 18.01 64.1542 17.5956 64.1542 17.2657L65.1691 17.5194C64.1457 17.6886 63.3168 17.8324 62.6825 17.9508C62.0481 18.0608 61.5364 18.1622 61.1473 18.2553C60.7583 18.3483 60.4157 18.4498 60.1197 18.5598C59.7814 18.6951 59.5065 18.8431 59.295 19.0038C59.092 19.1561 58.9398 19.3252 58.8383 19.5113C58.7452 19.6974 58.6987 19.9046 58.6987 20.133C58.6987 20.4459 58.7749 20.7166 58.9271 20.945C59.0878 21.1649 59.3119 21.334 59.5995 21.4524C59.8871 21.5708 60.2296 21.6301 60.6272 21.6301Z" fill="black"/>
<path d="M70.8785 23.9645V10.2624H73.9234V13.6118L73.5936 13.1804C73.7712 12.7068 74.008 12.2754 74.304 11.8864C74.6001 11.4973 74.9638 11.1759 75.3951 10.9221C75.725 10.7192 76.0845 10.5627 76.4735 10.4527C76.8626 10.3343 77.2644 10.2624 77.6788 10.237C78.0933 10.2032 78.5077 10.2117 78.9221 10.2624V13.4849C78.5415 13.3665 78.0975 13.3285 77.59 13.3708C77.091 13.4046 76.6385 13.5188 76.2325 13.7133C75.8265 13.8994 75.4839 14.1489 75.2048 14.4618C74.9257 14.7663 74.7143 15.13 74.5705 15.5529C74.4267 15.9674 74.3548 16.4368 74.3548 16.9612V23.9645H70.8785Z" fill="black"/>
<path d="M87.2536 24.3451C85.8749 24.3451 84.6654 24.0364 83.6251 23.4189C82.5848 22.8015 81.7728 21.9515 81.1892 20.8688C80.614 19.7777 80.3265 18.5259 80.3265 17.1134C80.3265 15.684 80.6225 14.428 81.2145 13.3454C81.8066 12.2543 82.6228 11.4043 83.6632 10.7953C84.7035 10.1863 85.9003 9.88181 87.2536 9.88181C88.6323 9.88181 89.8418 10.1905 90.8821 10.808C91.9309 11.4254 92.7471 12.2797 93.3307 13.3708C93.9143 14.4534 94.2061 15.701 94.2061 17.1134C94.2061 18.5344 93.9101 19.7904 93.318 20.8815C92.7344 21.9641 91.9182 22.8142 90.8694 23.4316C89.8291 24.0406 88.6238 24.3451 87.2536 24.3451ZM87.2536 21.1226C88.3616 21.1226 89.1863 20.7504 89.7276 20.0061C90.2774 19.2533 90.5522 18.2891 90.5522 17.1134C90.5522 15.8955 90.2731 14.9228 89.7149 14.1954C89.1651 13.468 88.3447 13.1043 87.2536 13.1043C86.5008 13.1043 85.8834 13.2735 85.4013 13.6118C84.9192 13.9501 84.5597 14.4196 84.3229 15.0201C84.0945 15.6206 83.9803 16.3184 83.9803 17.1134C83.9803 18.3399 84.2552 19.3168 84.805 20.0442C85.3632 20.7631 86.1794 21.1226 87.2536 21.1226Z" fill="black"/>
</svg>
