<svg width="116" height="38" viewBox="0 0 116 38" fill="none" xmlns="http://www.w3.org/2000/svg">
<path fill-rule="evenodd" clip-rule="evenodd" d="M18.3789 37.9521C28.5293 37.9521 36.7578 29.6121 36.7578 19.3242C36.7578 9.03631 28.5293 0.696289 18.3789 0.696289C8.2285 0.696289 0 9.03631 0 19.3242C0 29.6121 8.2285 37.9521 18.3789 37.9521ZM24.1125 9.37397C24.3916 8.36918 23.4295 7.77503 22.5509 8.40947L10.2859 17.2654C9.33301 17.9535 9.48289 19.3242 10.511 19.3242H13.7407V19.2989H20.0353L14.9064 21.1331L12.6453 29.2745C12.3663 30.2793 13.3282 30.8734 14.2069 30.239L26.472 21.3831C27.4248 20.695 27.2749 19.3242 26.2468 19.3242H21.349L24.1125 9.37397Z" fill="#4F46E5"/>
<path d="M56.2207 16.6136V13.333H60.2824V16.6136H56.2207ZM48.2534 30.2048V13.3955C48.2534 12.9684 48.2638 12.4842 48.2847 11.9426C48.3055 11.401 48.3888 10.8543 48.5346 10.3023C48.6908 9.7503 48.972 9.2504 49.3782 8.80256C49.8989 8.21934 50.4613 7.82358 51.0654 7.61529C51.6799 7.39658 52.2735 7.28201 52.8463 7.2716C53.4191 7.25077 53.9086 7.24036 54.3148 7.24036H56.4081V10.6772H54.471C53.8045 10.6772 53.3098 10.8491 52.9869 11.1927C52.664 11.526 52.5026 11.927 52.5026 12.3956V30.2048H48.2534ZM45.5977 16.6136V13.333H56.4081V16.6136H45.5977ZM60.1262 30.2048V7.24036H64.3754V30.2048H60.1262Z" fill="black"/>
<path d="M73.7467 30.6735C72.5386 30.6735 71.5127 30.4443 70.6691 29.9861C69.836 29.5174 69.2007 28.8978 68.7632 28.1271C68.3362 27.346 68.1227 26.4868 68.1227 25.5494C68.1227 24.7683 68.2425 24.0549 68.482 23.4092C68.7216 22.7635 69.1069 22.1959 69.6381 21.7064C70.1796 21.2065 70.9035 20.7899 71.8095 20.4566C72.4344 20.2275 73.1791 20.0244 74.0435 19.8474C74.9079 19.6703 75.8869 19.5037 76.9804 19.3475C78.074 19.1808 79.2769 18.9986 80.5891 18.8007L79.0582 19.6443C79.0582 18.6445 78.8186 17.9102 78.3396 17.4416C77.8605 16.9729 77.0586 16.7386 75.9338 16.7386C75.3089 16.7386 74.658 16.8896 73.981 17.1916C73.3041 17.4936 72.8302 18.03 72.5594 18.8007L68.7164 17.5822C69.1434 16.1866 69.9453 15.0514 71.1222 14.1766C72.299 13.3017 73.9029 12.8643 75.9338 12.8643C77.4231 12.8643 78.7457 13.0934 79.9018 13.5517C81.0578 14.0099 81.9326 14.8014 82.5263 15.9262C82.8596 16.5511 83.0574 17.176 83.1199 17.8009C83.1824 18.4258 83.2137 19.1235 83.2137 19.8942V30.2048H79.4956V26.7367L80.0268 27.4553C79.204 28.5905 78.3135 29.4133 77.3554 29.9236C76.4076 30.4235 75.2047 30.6735 73.7467 30.6735ZM74.6528 27.3303C75.4339 27.3303 76.09 27.195 76.6211 26.9242C77.1627 26.643 77.5897 26.3253 77.9021 25.9712C78.225 25.6171 78.4437 25.3203 78.5583 25.0808C78.777 24.6225 78.902 24.0914 78.9332 23.4873C78.9749 22.8728 78.9957 22.3625 78.9957 21.9563L80.2455 22.2688C78.9853 22.4771 77.9646 22.6541 77.1835 22.7999C76.4024 22.9353 75.7723 23.0603 75.2933 23.1749C74.8142 23.2894 74.3924 23.4144 74.0279 23.5498C73.6113 23.7164 73.2728 23.8987 73.0124 24.0966C72.7625 24.284 72.575 24.4923 72.45 24.7215C72.3355 24.9506 72.2782 25.2057 72.2782 25.4869C72.2782 25.8723 72.3719 26.2056 72.5594 26.4867C72.7573 26.7575 73.0333 26.9658 73.3874 27.1116C73.7415 27.2574 74.1633 27.3303 74.6528 27.3303Z" fill="black"/>
<path d="M87.2756 30.2048V13.333H91.0249V17.4572L90.6188 16.926C90.8375 16.3428 91.1291 15.8117 91.4936 15.3326C91.8581 14.8535 92.3059 14.4578 92.8371 14.1453C93.2433 13.8954 93.6859 13.7027 94.165 13.5673C94.644 13.4215 95.1387 13.333 95.6491 13.3017C96.1594 13.2601 96.6697 13.2705 97.18 13.333V17.301C96.7114 17.1552 96.1646 17.1083 95.5397 17.1604C94.9252 17.202 94.3681 17.3426 93.8682 17.5822C93.3682 17.8113 92.9464 18.1185 92.6028 18.5039C92.2591 18.8788 91.9987 19.3266 91.8217 19.8474C91.6446 20.3577 91.5561 20.9357 91.5561 21.5814V30.2048H87.2756Z" fill="black"/>
<path d="M107.439 30.6735C105.741 30.6735 104.252 30.2933 102.971 29.5331C101.69 28.7728 100.69 27.7261 99.9715 26.393C99.2633 25.0495 98.9092 23.5081 98.9092 21.7689C98.9092 20.0088 99.2737 18.4622 100.003 17.1291C100.732 15.7856 101.737 14.739 103.018 13.9891C104.299 13.2392 105.772 12.8643 107.439 12.8643C109.136 12.8643 110.626 13.2444 111.907 14.0047C113.198 14.765 114.203 15.8169 114.922 17.1604C115.64 18.4935 116 20.0296 116 21.7689C116 23.5186 115.635 25.0651 114.906 26.4086C114.188 27.7417 113.183 28.7884 111.891 29.5487C110.61 30.2985 109.126 30.6735 107.439 30.6735ZM107.439 26.7055C108.803 26.7055 109.819 26.2472 110.485 25.3307C111.162 24.4038 111.501 23.2165 111.501 21.7689C111.501 20.2692 111.157 19.0715 110.47 18.1758C109.793 17.2801 108.782 16.8323 107.439 16.8323C106.512 16.8323 105.752 17.0406 105.158 17.4572C104.564 17.8738 104.122 18.4518 103.83 19.1912C103.549 19.9307 103.408 20.7899 103.408 21.7689C103.408 23.279 103.747 24.4819 104.424 25.3776C105.111 26.2628 106.116 26.7055 107.439 26.7055Z" fill="black"/>
</svg>
