<svg width="36" height="32" viewBox="0 0 36 32" fill="none" xmlns="http://www.w3.org/2000/svg">
<path d="M16.4767 10.871H32.6846C33.2987 10.871 33.8876 11.1087 34.3218 11.5318C34.7561 11.9549 35 12.5288 35 13.1272V22.7161C35 23.3145 34.7561 23.8884 34.3218 24.3115C33.8876 24.7346 33.2987 24.9724 32.6846 24.9724H30.3692V30.6129L22.2652 24.9724H16.4767C15.8626 24.9724 15.2737 24.7346 14.8395 24.3115C14.4052 23.8884 14.1613 23.3145 14.1613 22.7161V13.1272C14.1613 12.5288 14.4052 11.9549 14.8395 11.5318C15.2737 11.1087 15.8626 10.871 16.4767 10.871Z" fill="white" stroke="black" stroke-width="1.5" stroke-linecap="round" stroke-linejoin="round"/>
<g filter="url(#filter0_b_52_81)">
<path d="M24.132 1H3.8915C3.12462 1 2.38916 1.30464 1.8469 1.8469C1.30464 2.38916 1 3.12462 1 3.8915V16.1804C1 16.9472 1.30464 17.6827 1.8469 18.2249C2.38916 18.7672 3.12462 19.0718 3.8915 19.0718H6.78299V26.3006L16.9032 19.0718H24.132C24.8988 19.0718 25.6343 18.7672 26.1766 18.2249C26.7188 17.6827 27.0235 16.9472 27.0235 16.1804V3.8915C27.0235 3.12462 26.7188 2.38916 26.1766 1.8469C25.6343 1.30464 24.8988 1 24.132 1Z" fill="#4F46E5" fill-opacity="0.7"/>
<path d="M24.132 1H3.8915C3.12462 1 2.38916 1.30464 1.8469 1.8469C1.30464 2.38916 1 3.12462 1 3.8915V16.1804C1 16.9472 1.30464 17.6827 1.8469 18.2249C2.38916 18.7672 3.12462 19.0718 3.8915 19.0718H6.78299V26.3006L16.9032 19.0718H24.132C24.8988 19.0718 25.6343 18.7672 26.1766 18.2249C26.7188 17.6827 27.0235 16.9472 27.0235 16.1804V3.8915C27.0235 3.12462 26.7188 2.38916 26.1766 1.8469C25.6343 1.30464 24.8988 1 24.132 1Z" stroke="black" stroke-width="1.5" stroke-linecap="round" stroke-linejoin="round"/>
</g>
<defs>
<filter id="filter0_b_52_81" x="-2.75" y="-2.75" width="33.5235" height="32.8005" filterUnits="userSpaceOnUse" color-interpolation-filters="sRGB">
<feFlood flood-opacity="0" result="BackgroundImageFix"/>
<feGaussianBlur in="BackgroundImage" stdDeviation="1.5"/>
<feComposite in2="SourceAlpha" operator="in" result="effect1_backgroundBlur_52_81"/>
<feBlend mode="normal" in="SourceGraphic" in2="effect1_backgroundBlur_52_81" result="shape"/>
</filter>
</defs>
</svg>
