<svg width="1063" height="535" viewBox="0 0 1063 535" fill="none" xmlns="http://www.w3.org/2000/svg">
<g opacity="0.4" filter="url(#filter0_f_362_1418)">
<ellipse cx="781.5" cy="387.5" rx="324.5" ry="234.5" fill="url(#paint0_linear_362_1418)"/>
</g>
<g opacity="0.02">
<path d="M627.659 949.942C664.171 874.109 706.124 806.453 764.778 744.415C851.845 652.325 956.643 581.816 1061.01 511.097C1128.54 465.334 1196.82 417.8 1269.28 380.085C1435.01 293.829 1616.76 252.443 1798.52 216.091" stroke="white" stroke-width="2" stroke-linecap="round"/>
<path d="M666.138 985.672C702.65 909.84 744.604 842.183 803.258 780.145C890.324 688.056 995.122 617.547 1099.49 546.828C1167.02 501.065 1235.3 453.531 1307.76 415.816C1473.49 329.56 1655.24 288.174 1837 251.822" stroke="white" stroke-width="2" stroke-linecap="round"/>
<path d="M594.677 908.714C631.189 832.881 673.142 765.225 731.796 703.187C818.863 611.098 923.66 540.589 1028.02 469.87C1095.56 424.107 1163.84 376.572 1236.3 338.858C1402.03 252.602 1583.78 211.216 1765.54 174.864" stroke="white" stroke-width="2" stroke-linecap="round"/>
<path d="M561.695 867.487C598.207 791.654 640.16 723.998 698.814 661.96C785.881 569.87 890.678 499.361 995.042 428.642C1062.58 382.879 1130.85 335.345 1203.32 297.63C1369.05 211.374 1550.8 169.988 1732.56 133.636" stroke="white" stroke-width="2" stroke-linecap="round"/>
<path d="M528.712 826.259C565.224 750.426 607.178 682.77 665.832 620.732C752.899 528.642 857.696 458.134 962.06 387.415C1029.59 341.652 1097.87 294.117 1170.34 256.403C1336.06 170.146 1517.81 128.761 1699.57 92.4086" stroke="white" stroke-width="2" stroke-linecap="round"/>
<path d="M495.73 785.032C532.243 709.199 574.196 641.543 632.85 579.505C719.917 487.415 824.714 416.906 929.078 346.187C996.612 300.424 1064.89 252.89 1137.35 215.175C1303.08 128.919 1484.83 87.5333 1666.59 51.1812" stroke="white" stroke-width="2" stroke-linecap="round"/>
<path d="M462.749 743.804C499.261 667.971 541.214 600.315 599.868 538.277C686.935 446.187 791.732 375.678 896.096 304.96C963.631 259.197 1031.91 211.662 1104.37 173.948C1270.1 87.6914 1451.85 46.3057 1633.61 9.95355" stroke="white" stroke-width="2" stroke-linecap="round"/>
<path d="M429.766 702.576C466.278 626.744 508.232 559.088 566.886 497.05C653.953 404.96 758.75 334.451 863.114 263.732C930.648 217.969 998.926 170.435 1071.39 132.72C1237.12 46.464 1418.87 5.07825 1600.63 -31.2739" stroke="white" stroke-width="2" stroke-linecap="round"/>
<path d="M396.784 661.349C433.296 585.516 475.25 517.86 533.904 455.822C620.971 363.732 725.768 293.223 830.132 222.504C897.666 176.741 965.944 129.207 1038.41 91.4924C1204.14 5.23623 1385.89 -36.1495 1567.65 -72.5016" stroke="white" stroke-width="2" stroke-linecap="round"/>
<path d="M363.802 620.121C400.314 544.288 442.268 476.632 500.922 414.594C587.988 322.505 692.786 251.996 797.15 181.277C864.684 135.514 932.962 87.9796 1005.42 50.2649C1171.15 -35.9913 1352.9 -77.377 1534.66 -113.729" stroke="white" stroke-width="2" stroke-linecap="round"/>
<path d="M330.82 578.894C367.332 503.061 409.286 435.405 467.94 373.367C555.007 281.277 659.804 210.768 764.168 140.049C831.702 94.2864 899.98 46.752 972.443 9.03735C1138.17 -77.2188 1319.92 -118.605 1501.68 -154.957" stroke="white" stroke-width="2" stroke-linecap="round"/>
<path d="M297.838 537.666C334.35 461.833 376.304 394.177 434.958 332.139C522.025 240.05 626.822 169.541 731.186 98.8218C798.72 53.0588 866.998 5.5245 939.461 -32.1902C1105.19 -118.446 1286.94 -159.832 1468.7 -196.184" stroke="white" stroke-width="2" stroke-linecap="round"/>
<path d="M264.856 496.439C301.368 420.606 343.322 352.95 401.976 290.912C489.042 198.822 593.84 128.313 698.204 57.5942C765.738 11.8313 834.016 -35.703 906.479 -73.4177C1072.21 -159.674 1253.96 -201.06 1435.72 -237.412" stroke="white" stroke-width="2" stroke-linecap="round"/>
<path d="M231.874 455.211C268.386 379.378 310.34 311.722 368.994 249.684C456.06 157.595 560.858 87.0856 665.222 16.3667C732.756 -29.3962 801.034 -76.9306 873.497 -114.645C1039.23 -200.901 1220.98 -242.287 1402.74 -278.639" stroke="white" stroke-width="2" stroke-linecap="round"/>
<path d="M198.892 413.983C235.404 338.151 277.358 270.495 336.012 208.457C423.078 116.367 527.876 45.8581 632.239 -24.8608C699.774 -70.6238 768.052 -118.158 840.515 -155.873C1006.24 -242.129 1187.99 -283.515 1369.75 -319.867" stroke="white" stroke-width="2" stroke-linecap="round"/>
<path d="M165.91 372.756C202.422 296.923 244.376 229.267 303.03 167.229C390.096 75.1395 494.894 4.63056 599.257 -66.0884C666.792 -111.851 735.07 -159.386 807.533 -197.1C973.261 -283.357 1155.01 -324.742 1336.77 -361.094" stroke="white" stroke-width="2" stroke-linecap="round"/>
<path d="M132.928 331.528C169.44 255.696 211.394 188.04 270.048 126.001C357.114 33.912 461.912 -36.597 566.276 -107.316C633.81 -153.079 702.088 -200.613 774.551 -238.328C940.279 -324.584 1122.03 -365.97 1303.79 -402.322" stroke="white" stroke-width="2" stroke-linecap="round"/>
<path d="M99.946 290.301C136.458 214.468 178.412 146.812 237.066 84.7739C324.132 -7.31558 428.93 -77.8245 533.293 -148.543C600.828 -194.306 669.106 -241.841 741.569 -279.555C907.297 -365.812 1089.05 -407.197 1270.81 -443.549" stroke="white" stroke-width="2" stroke-linecap="round"/>
<path d="M66.9641 249.073C103.476 173.241 145.43 105.584 204.084 43.5464C291.15 -48.5431 395.948 -119.052 500.311 -189.771C567.846 -235.534 636.124 -283.068 708.587 -320.783C874.315 -407.039 1056.07 -448.425 1237.83 -484.777" stroke="white" stroke-width="2" stroke-linecap="round"/>
<path d="M33.9819 207.846C70.494 132.013 112.448 64.3569 171.102 2.31885C258.168 -89.7707 362.966 -160.28 467.329 -230.999C534.864 -276.761 603.142 -324.296 675.605 -362.011C841.333 -448.267 1023.08 -489.652 1204.84 -526.005" stroke="white" stroke-width="2" stroke-linecap="round"/>
<path d="M1 166.618C37.512 90.7856 79.4656 23.1294 138.12 -38.9087C225.186 -130.998 329.984 -201.507 434.347 -272.226C501.882 -317.989 570.16 -365.523 642.623 -403.238C808.351 -489.494 990.102 -530.88 1171.86 -567.232" stroke="white" stroke-width="2" stroke-linecap="round"/>
</g>
<defs>
<filter id="filter0_f_362_1418" x="273" y="-31" width="1017" height="837" filterUnits="userSpaceOnUse" color-interpolation-filters="sRGB">
<feFlood flood-opacity="0" result="BackgroundImageFix"/>
<feBlend mode="normal" in="SourceGraphic" in2="BackgroundImageFix" result="shape"/>
<feGaussianBlur stdDeviation="92" result="effect1_foregroundBlur_362_1418"/>
</filter>
<linearGradient id="paint0_linear_362_1418" x1="500.37" y1="272.209" x2="892.387" y2="679.264" gradientUnits="userSpaceOnUse">
<stop stop-color="#863CF9"/>
<stop offset="0.239583" stop-color="#B887F4"/>
<stop offset="0.494792" stop-color="#9FB4FC"/>
<stop offset="0.776042" stop-color="#B7E4BB"/>
<stop offset="1" stop-color="#FCFD64"/>
</linearGradient>
</defs>
</svg>
